<svg version="1.1" xmlns="http://www.w3.org/2000/svg" xmlns:xlink="http://www.w3.org/1999/xlink" width="800" height="800"><defs/><g transform="scale(2,2)"><g id="background-30c535ec"><rect fill="white" stroke="none" x="0" y="0" width="400" height="400" class="dcg-svg-background"/></g><g id="background-images-30c535ec"/><g id="graphpaper-30c535ec"><g id="grid-30c535ec"><g><path fill="none" stroke="rgb(0,0,0)" class="dcg-svg-minor-gridline" paint-order="fill stroke markers" d=" M 60.5 0 L 60.5 400" stroke-opacity="0.2" stroke-miterlimit="10" stroke-dasharray=""/><path fill="none" stroke="rgb(0,0,0)" class="dcg-svg-minor-gridline" paint-order="fill stroke markers" d=" M 338.5 0 L 338.5 400" stroke-opacity="0.2" stroke-miterlimit="10" stroke-dasharray=""/><path fill="none" stroke="rgb(0,0,0)" class="dcg-svg-minor-gridline" paint-order="fill stroke markers" d=" M 0 340.5 L 400 340.5" stroke-opacity="0.2" stroke-miterlimit="10" stroke-dasharray=""/><path fill="none" stroke="rgb(0,0,0)" class="dcg-svg-minor-gridline" paint-order="fill stroke markers" d=" M 0 61.5 L 400 61.5" stroke-opacity="0.2" stroke-miterlimit="10" stroke-dasharray=""/><path fill="none" stroke="rgb(0,0,0)" class="dcg-svg-major-gridline" paint-order="fill stroke markers" d=" M 60.5 0 L 60.5 400" stroke-opacity="0.2500000000000001" stroke-miterlimit="10" stroke-dasharray=""/><path fill="none" stroke="rgb(0,0,0)" class="dcg-svg-major-gridline" paint-order="fill stroke markers" d=" M 338.5 0 L 338.5 400" stroke-opacity="0.2500000000000001" stroke-miterlimit="10" stroke-dasharray=""/><path fill="none" stroke="rgb(0,0,0)" class="dcg-svg-major-gridline" paint-order="fill stroke markers" d=" M 0 340 L 400 340" stroke-opacity="0.2500000000000001" stroke-miterlimit="10" stroke-dasharray=""/><path fill="none" stroke="rgb(0,0,0)" class="dcg-svg-major-gridline" paint-order="fill stroke markers" d=" M 0 62 L 400 62" stroke-opacity="0.2500000000000001" stroke-miterlimit="10" stroke-dasharray=""/></g></g><g id="axis-30c535ec"><g id="yaxis-30c535ec"><title>R</title><path fill="none" stroke="rgb(0,0,0)" class="dcg-svg-axis-line" paint-order="fill stroke markers" d=" M 200 3 L 200 400" stroke-opacity="0.9" stroke-miterlimit="10" stroke-width="1.5" stroke-dasharray=""/><g class="dcg-svg-axis-line"><path fill="rgb(0,0,0)" stroke="rgb(0,0,0)" class="dcg-svg-axis-line" paint-order="stroke fill markers" d=" M 200 1.5 L 203.10582854123024 13.09110991546882 L 196.89417145876976 13.09110991546882 L 200 1.5 L 203.10582854123024 13.09110991546882" stroke-opacity="0.9" stroke-linejoin="round" stroke-miterlimit="10" stroke-width="1.5" stroke-dasharray="" fill-opacity="0.9"/></g></g><g id="xaxis-30c535ec"><title>R</title><path fill="none" stroke="rgb(0,0,0)" class="dcg-svg-axis-line" paint-order="fill stroke markers" d=" M 0 201 L 397 201" stroke-opacity="0.9" stroke-miterlimit="10" stroke-width="1.5" stroke-dasharray=""/><g class="dcg-svg-axis-line"><path fill="rgb(0,0,0)" stroke="rgb(0,0,0)" class="dcg-svg-axis-line" paint-order="stroke fill markers" d=" M 398.5 201 L 386.9088900845312 204.10582854123027 L 386.9088900845312 197.89417145876976 L 398.5 201 L 386.9088900845312 204.10582854123027" stroke-opacity="0.9" stroke-linejoin="round" stroke-miterlimit="10" stroke-width="1.5" stroke-dasharray="" fill-opacity="0.9"/></g></g><g><g class="dcg-svg-axis-value"><text fill="none" stroke="#ffffff" font-family="Arial" font-size="14px" font-style="normal" font-weight="normal" text-decoration="normal" x="190.76518153942197" y="216.90081788623363" text-anchor="middle" stroke-miterlimit="2" stroke-width="3" stroke-dasharray="">0</text><text fill="#000000" stroke="none" font-family="Arial" font-size="14px" font-style="normal" font-weight="normal" text-decoration="normal" x="190.76518153942197" y="216.90081788623363" text-anchor="middle">0</text></g><g class="dcg-svg-axis-value"><text fill="none" stroke="#ffffff" font-family="Arial" font-size="14px" font-style="normal" font-weight="normal" text-decoration="normal" x="58.15385811379588" y="216.90081788623363" text-anchor="middle" stroke-miterlimit="2" stroke-width="3" stroke-dasharray="">-1</text><text fill="#000000" stroke="none" font-family="Arial" font-size="14px" font-style="normal" font-weight="normal" text-decoration="normal" x="58.15385811379588" y="216.90081788623363" text-anchor="middle">-1</text></g><g class="dcg-svg-axis-value"><text fill="none" stroke="#ffffff" font-family="Arial" font-size="14px" font-style="normal" font-weight="normal" text-decoration="normal" x="338.83158309004807" y="216.90081788623363" text-anchor="middle" stroke-miterlimit="2" stroke-width="3" stroke-dasharray="">1</text><text fill="#000000" stroke="none" font-family="Arial" font-size="14px" font-style="normal" font-weight="normal" text-decoration="normal" x="338.83158309004807" y="216.90081788623363" text-anchor="middle">1</text></g><g class="dcg-svg-axis-value"><text fill="none" stroke="#ffffff" font-family="Arial" font-size="14px" font-style="normal" font-weight="normal" text-decoration="normal" x="188.43412685192197" y="344.07415303060975" text-anchor="middle" stroke-miterlimit="2" stroke-width="3" stroke-dasharray="">-1</text><text fill="#000000" stroke="none" font-family="Arial" font-size="14px" font-style="normal" font-weight="normal" text-decoration="normal" x="188.43412685192197" y="344.07415303060975" text-anchor="middle">-1</text></g><g class="dcg-svg-axis-value"><text fill="none" stroke="#ffffff" font-family="Arial" font-size="14px" font-style="normal" font-weight="normal" text-decoration="normal" x="190.76518153942197" y="65.72748274185754" text-anchor="middle" stroke-miterlimit="2" stroke-width="3" stroke-dasharray="">1</text><text fill="#000000" stroke="none" font-family="Arial" font-size="14px" font-style="normal" font-weight="normal" text-decoration="normal" x="190.76518153942197" y="65.72748274185754" text-anchor="middle">1</text></g></g><g class="dcg-svg-axis-label"><text fill="none" stroke="#ffffff" font-family="Times" font-size="20px" font-style="italic" font-weight="normal" text-decoration="normal" x="372.783203125" y="234.09281788623363" text-anchor="start" stroke-miterlimit="2" stroke-width="3" stroke-dasharray="">R</text><text fill="#000000" stroke="none" font-family="Times" font-size="20px" font-style="italic" font-weight="normal" text-decoration="normal" x="372.783203125" y="234.09281788623363" text-anchor="start">R</text></g><g class="dcg-svg-axis-label" transform="translate(164.99320888317197,29)"><text fill="none" stroke="#ffffff" font-family="Times" font-size="20px" font-style="italic" font-weight="normal" text-decoration="normal" x="0" y="0" text-anchor="start" stroke-miterlimit="2" stroke-width="3" stroke-dasharray="">R</text><text fill="#000000" stroke="none" font-family="Times" font-size="20px" font-style="italic" font-weight="normal" text-decoration="normal" x="0" y="0" text-anchor="start">R</text></g></g></g><g id="expressions-30c535ec"><g id="sketch-30c535ec"><title>Expression 1</title><path fill="#6042a6" stroke="none" paint-order="stroke fill markers" d="" fill-opacity="0.4"/><path fill="#6042a6" stroke="none" class="dcg-svg-region" paint-order="stroke fill markers" d=" M 199.6678352355957 131.6192626953125 L 200 131.50699051767606 L 202.60683797133356 131.56865211176336 L 207.086181640625 131.9037503053858 L 210.7418057208142 132.39450017525604 L 214.17236328125 133.03664574577658 L 221.25854492187503 134.94351066382472 L 224.41669856804327 136.0595703125 L 228.34472656250003 137.6941760048752 L 232.01359143070619 139.48571736081652 L 235.43090820312503 141.40513516405582 L 240.75077969080962 144.93493676186273 L 242.51708984375003 146.2710718128474 L 248.42339999423265 151.45147494118277 L 249.60327148437503 152.63875595217397 L 255.06875212984502 158.9979357280236 L 256.689453125 161.2212340415555 L 258.83277824960953 164.47753906249997 L 260.65684042840536 167.6043922998158 L 262.67743040812024 171.58203124999997 L 263.775634765625 174.0509474357221 L 265.5389119033543 178.68652343749997 L 266.3657146296512 181.28329601435317 L 267.5416705941596 185.79101562499997 L 268.1059096402349 188.5540435971288 L 268.7604063006318 192.8955078125 L 269.23849971154493 200.14861173538776 L 269.2009925842285 201.08232498168945 L 268.9241886138916 201.054573059082 L 268.3705806732178 201.054573059082 L 268.09377670288086 201.08232498168945 L 267.76161193847656 200.9990692138672 L 267.15264320373535 201.054573059082 L 266.5990352630615 201.054573059082 L 266.3222312927246 201.08232498168945 L 265.9900665283203 200.9990692138672 L 265.3810977935791 201.054573059082 L 264.8274898529053 201.054573059082 L 264.55068588256836 201.08232498168945 L 264.21852111816406 200.9990692138672 L 263.60955238342285 201.054573059082 L 263.0559444427491 201.054573059082 L 262.7791404724121 201.08232498168945 L 262.4469757080078 200.9990692138672 L 261.8380069732666 201.054573059082 L 261.2843990325928 201.054573059082 L 261.00759506225586 201.08232498168945 L 260.67543029785156 200.9990692138672 L 260.06646156311035 201.054573059082 L 259.5128536224365 201.054573059082 L 259.2360496520996 201.08232498168945 L 258.9038848876953 200.9990692138672 L 258.2949161529541 201.054573059082 L 257.7413082122803 201.054573059082 L 257.46450424194336 201.08232498168945 L 257.13233947753906 200.9990692138672 L 256.52337074279785 201.054573059082 L 255.96976280212405 201.054573059082 L 255.69295883178714 201.08232498168945 L 255.36079406738284 200.9990692138672 L 254.7518253326416 201.054573059082 L 254.19821739196777 201.054573059082 L 253.9214134216309 201.08232498168945 L 253.5892486572266 200.9990692138672 L 252.98027992248535 201.054573059082 L 252.42667198181155 201.054573059082 L 252.14986801147464 201.08232498168945 L 251.81770324707034 200.9990692138672 L 251.2087345123291 201.054573059082 L 250.65512657165527 201.054573059082 L 250.3783226013184 201.08232498168945 L 250.0461578369141 200.9990692138672 L 249.43718910217285 201.054573059082 L 248.88358116149905 201.054573059082 L 248.60677719116214 201.08232498168945 L 248.27461242675784 200.9990692138672 L 247.6656436920166 201.054573059082 L 247.11203575134277 201.054573059082 L 246.8352317810059 201.08232498168945 L 246.5030670166016 200.9990692138672 L 245.89409828186035 201.054573059082 L 245.34049034118655 201.054573059082 L 245.06368637084964 201.08232498168945 L 244.73152160644534 200.9990692138672 L 244.1225528717041 201.054573059082 L 243.56894493103027 201.054573059082 L 243.2921409606934 201.08232498168945 L 242.95997619628906 200.9990692138672 L 242.35100746154785 201.054573059082 L 241.79739952087405 201.054573059082 L 241.52059555053714 201.08232498168945 L 241.1884307861328 200.9990692138672 L 240.5794620513916 201.054573059082 L 240.02585411071777 201.054573059082 L 239.7490501403809 201.08232498168945 L 239.41688537597656 200.9990692138672 L 238.80791664123535 201.054573059082 L 238.25430870056155 201.054573059082 L 237.9775047302246 201.08232498168945 L 237.6453399658203 200.9990692138672 L 237.0363712310791 201.054573059082 L 236.48276329040527 201.054573059082 L 236.20595932006836 201.08232498168945 L 235.87379455566406 200.9990692138672 L 235.26482582092285 201.054573059082 L 234.71121788024905 201.054573059082 L 234.4344139099121 201.08232498168945 L 234.1022491455078 200.9990692138672 L 233.4932804107666 201.054573059082 L 232.93967247009277 201.054573059082 L 232.66286849975586 201.08232498168945 L 232.33070373535156 200.9990692138672 L 231.72173500061035 201.054573059082 L 231.16812705993655 201.054573059082 L 230.8913230895996 201.08232498168945 L 230.5591583251953 200.9990692138672 L 229.9501895904541 201.054573059082 L 229.3965816497803 201.054573059082 L 229.11977767944336 201.08232498168945 L 228.78761291503906 200.9990692138672 L 228.17864418029785 201.054573059082 L 227.62503623962405 201.054573059082 L 227.3482322692871 201.08232498168945 L 227.0160675048828 200.9990692138672 L 226.4070987701416 201.054573059082 L 225.8534908294678 201.054573059082 L 225.57668685913086 201.08232498168945 L 225.24452209472656 200.9990692138672 L 224.63555335998535 201.054573059082 L 224.08194541931155 201.054573059082 L 223.8051414489746 201.08232498168945 L 223.4729766845703 200.9990692138672 L 222.8640079498291 201.054573059082 L 222.3104000091553 201.054573059082 L 222.03359603881836 201.08232498168945 L 221.70143127441406 200.9990692138672 L 221.09246253967285 201.054573059082 L 220.53885459899905 201.054573059082 L 220.2620506286621 201.08232498168945 L 219.9298858642578 200.9990692138672 L 219.3209171295166 201.054573059082 L 218.7673091888428 201.054573059082 L 218.49050521850586 201.08232498168945 L 218.15834045410156 200.9990692138672 L 217.54937171936035 201.054573059082 L 216.99576377868652 201.054573059082 L 216.7189598083496 201.08232498168945 L 216.3867950439453 200.9990692138672 L 215.7778263092041 201.054573059082 L 215.22421836853027 201.054573059082 L 214.94741439819336 201.08232498168945 L 214.61524963378906 200.9990692138672 L 214.00628089904785 201.054573059082 L 213.45267295837402 201.054573059082 L 213.1758689880371 201.08232498168945 L 212.8437042236328 200.9990692138672 L 212.2347354888916 201.054573059082 L 211.68112754821777 201.054573059082 L 211.40432357788086 201.08232498168945 L 211.07215881347656 200.9990692138672 L 210.46319007873535 201.054573059082 L 209.90958213806152 201.054573059082 L 209.6327781677246 201.08232498168945 L 209.3006134033203 200.9990692138672 L 208.6916446685791 201.054573059082 L 208.13803672790527 201.054573059082 L 207.86123275756836 201.08232498168945 L 207.52906799316406 200.9990692138672 L 206.92009925842285 201.054573059082 L 206.36649131774902 201.054573059082 L 206.0896873474121 201.08232498168945 L 205.7575225830078 200.9990692138672 L 205.1485538482666 201.054573059082 L 204.59494590759277 201.054573059082 L 204.31814193725586 201.08232498168945 L 203.98597717285156 200.9990692138672 L 203.37700843811038 201.054573059082 L 202.82340049743652 201.054573059082 L 202.5465965270996 201.08232498168945 L 202.2144317626953 200.9990692138672 L 201.60546302795413 201.054573059082 L 201.05185508728027 201.054573059082 L 200.77505111694336 201.08232498168945 L 200.44288635253906 200.9990692138672 L 199.83391761779788 201.054573059082 L 199.6678352355957 200.8880615234375 L 199.6678352355957 131.6192626953125" fill-opacity="0.8"/><g><path fill="none" stroke="#6042a6" class="dcg-svg-curve" paint-order="fill stroke markers" d=" M 199.8875573217306 131.50652946748687 L 202.60683797133356 131.56865211176336 M 202.60683797133356 131.56865211176336 L 207.086181640625 131.9037503053858 M 207.086181640625 131.9037503053858 L 210.7418057208142 132.39450017525604 M 210.7418057208142 132.39450017525604 L 214.17236328125 133.03664574577658 M 214.17236328125 133.03664574577658 L 217.27170066056686 133.8706658171691 M 227.852825048922 137.489476594556 L 228.34472656250003 137.6941760048752 M 228.34472656250003 137.6941760048752 L 232.01359143070619 139.48571736081652 M 232.01359143070619 139.48571736081652 L 235.43090820312503 141.40513516405582 M 235.43090820312503 141.40513516405582 L 240.75077969080962 144.93493676186273 M 240.75077969080962 144.93493676186273 L 242.51708984375003 146.2710718128474 M 242.51708984375003 146.2710718128474 L 242.8671857822282 146.57813968580047 M 250.99524447243326 154.25834022085593 L 255.06875212984502 158.9979357280236 M 255.06875212984502 158.9979357280236 L 256.689453125 161.2212340415555 M 256.689453125 161.2212340415555 L 258.83277824960953 164.47753906249997 M 258.83277824960953 164.47753906249997 L 260.65684042840536 167.6043922998158 M 260.65684042840536 167.6043922998158 L 261.14630286378684 168.567925162579 M 265.5867068344739 178.8366349000006 L 266.3657146296512 181.28329601435317 M 266.3657146296512 181.28329601435317 L 267.5416705941596 185.79101562499997 M 267.5416705941596 185.79101562499997 L 268.1059096402349 188.5540435971288 M 268.1059096402349 188.5540435971288 L 268.7604063006318 192.8955078125 M 268.7604063006318 192.8955078125 L 268.96845661516164 196.0518168475742" stroke-linecap="round" stroke-linejoin="round" stroke-miterlimit="10" stroke-width="4" stroke-opacity="0" stroke-dasharray=""/></g></g><g id="sketch-30c535ec"><title>Expression 2</title><path fill="#6042a6" stroke="none" paint-order="stroke fill markers" d="" fill-opacity="0.4"/><path fill="#6042a6" stroke="none" class="dcg-svg-region" paint-order="stroke fill markers" d=" M 174.566650390625 61.956787109375 L 175.83007812500003 62.01171875 L 177.093505859375 61.956787109375 L 177.203369140625 61.956787109375 L 178.466796875 62.01171875 L 179.73022460937503 61.956787109375 L 179.840087890625 61.956787109375 L 181.103515625 62.01171875 L 182.366943359375 61.956787109375 L 182.47680664062503 61.956787109375 L 183.74023437500003 62.01171875 L 185.003662109375 61.956787109375 L 185.113525390625 61.956787109375 L 186.37695312500003 62.01171875 L 187.64038085937503 61.956787109375 L 187.750244140625 61.956787109375 L 189.013671875 62.01171875 L 190.277099609375 61.956787109375 L 190.386962890625 61.956787109375 L 191.650390625 62.01171875 L 192.913818359375 61.956787109375 L 193.023681640625 61.956787109375 L 194.28710937500003 62.01171875 L 195.550537109375 61.956787109375 L 195.660400390625 61.956787109375 L 196.923828125 62.01171875 L 198.18725585937503 61.956787109375 L 198.297119140625 61.956787109375 L 199.560546875 62.01171875 L 199.65824794567197 62.01171874999994 L 199.65824794567197 200.87890625 L 199.560546875 200.98876953124997 L 198.95629882812503 201.04370117187497 L 198.406982421875 201.04370117187497 L 198.13232421875003 201.07116699218747 L 197.80273437500003 200.98876953124997 L 197.198486328125 201.04370117187497 L 196.64916992187503 201.04370117187497 L 196.37451171875 201.07116699218747 L 196.044921875 200.98876953124997 L 195.44067382812503 201.04370117187497 L 194.891357421875 201.04370117187497 L 194.61669921875003 201.07116699218747 L 194.28710937500003 200.98876953124997 L 193.682861328125 201.04370117187497 L 193.13354492187503 201.04370117187497 L 192.85888671875 201.07116699218747 L 192.529296875 200.98876953124997 L 191.92504882812503 201.04370117187497 L 191.375732421875 201.04370117187497 L 191.10107421875003 201.07116699218747 L 190.77148437500003 200.98876953124997 L 190.167236328125 201.04370117187497 L 189.617919921875 201.04370117187497 L 189.34326171875 201.07116699218747 L 189.013671875 200.98876953124997 L 188.40942382812503 201.04370117187497 L 187.860107421875 201.04370117187497 L 187.58544921875003 201.07116699218747 L 187.255859375 200.98876953124997 L 186.651611328125 201.04370117187497 L 186.10229492187503 201.04370117187497 L 185.82763671875 201.07116699218747 L 185.498046875 200.98876953124997 L 184.893798828125 201.04370117187497 L 184.344482421875 201.04370117187497 L 184.06982421875003 201.07116699218747 L 183.74023437500003 200.98876953124997 L 183.135986328125 201.04370117187497 L 182.586669921875 201.04370117187497 L 182.31201171875 201.07116699218747 L 181.982421875 200.98876953124997 L 181.378173828125 201.04370117187497 L 180.828857421875 201.04370117187497 L 180.55419921875003 201.07116699218747 L 180.224609375 200.98876953124997 L 179.620361328125 201.04370117187497 L 179.071044921875 201.04370117187497 L 178.79638671875 201.07116699218747 L 178.466796875 200.98876953124997 L 177.862548828125 201.04370117187497 L 177.313232421875 201.04370117187497 L 177.03857421875 201.07116699218747 L 176.708984375 200.98876953124997 L 176.104736328125 201.04370117187497 L 175.555419921875 201.04370117187497 L 175.28076171875 201.07116699218747 L 174.951171875 200.98876953124997 L 174.346923828125 201.04370117187497 L 173.797607421875 201.04370117187497 L 173.52294921875003 201.07116699218747 L 173.193359375 200.98876953124997 L 172.589111328125 201.04370117187497 L 172.039794921875 201.04370117187497 L 171.76513671875 201.07116699218747 L 171.435546875 200.98876953124997 L 170.831298828125 201.04370117187497 L 170.281982421875 201.04370117187497 L 170.00732421875 201.07116699218747 L 169.677734375 200.98876953124997 L 169.073486328125 201.04370117187497 L 168.524169921875 201.04370117187497 L 168.24951171875 201.07116699218747 L 167.919921875 200.98876953124997 L 167.315673828125 201.04370117187497 L 166.766357421875 201.04370117187497 L 166.49169921875 201.07116699218747 L 166.162109375 200.98876953124997 L 165.557861328125 201.04370117187497 L 165.008544921875 201.04370117187497 L 164.73388671875 201.07116699218747 L 164.40429687499997 200.98876953124997 L 163.800048828125 201.04370117187497 L 163.25073242187503 201.04370117187497 L 162.97607421875 201.07116699218747 L 162.646484375 200.98876953124997 L 162.042236328125 201.04370117187497 L 161.492919921875 201.04370117187497 L 161.21826171875 201.07116699218747 L 160.888671875 200.98876953124997 L 160.284423828125 201.04370117187497 L 159.73510742187497 201.04370117187497 L 159.46044921875 201.07116699218747 L 159.130859375 200.98876953124997 L 158.526611328125 201.04370117187497 L 157.977294921875 201.04370117187497 L 157.70263671875 201.07116699218747 L 157.37304687499997 200.98876953124997 L 156.768798828125 201.04370117187497 L 156.21948242187503 201.04370117187497 L 155.94482421875 201.07116699218747 L 155.615234375 200.98876953124997 L 155.010986328125 201.04370117187497 L 154.461669921875 201.04370117187497 L 154.18701171875 201.07116699218747 L 153.85742187500003 200.98876953124997 L 153.253173828125 201.04370117187497 L 152.703857421875 201.04370117187497 L 152.42919921875 201.07116699218747 L 152.099609375 200.98876953124997 L 151.49536132812503 201.04370117187497 L 150.946044921875 201.04370117187497 L 150.67138671875 201.07116699218747 L 150.341796875 200.98876953124997 L 149.737548828125 201.04370117187497 L 149.18823242187503 201.04370117187497 L 148.91357421875 201.07116699218747 L 148.583984375 200.98876953124997 L 147.97973632812503 201.04370117187497 L 147.430419921875 201.04370117187497 L 147.15576171875 201.07116699218747 L 146.82617187500003 200.98876953124997 L 146.221923828125 201.04370117187497 L 145.672607421875 201.04370117187497 L 145.39794921875 201.07116699218747 L 145.068359375 200.98876953124997 L 144.46411132812503 201.04370117187497 L 143.914794921875 201.04370117187497 L 143.64013671875 201.07116699218747 L 143.310546875 200.98876953124997 L 142.706298828125 201.04370117187497 L 142.15698242187503 201.04370117187497 L 141.88232421875 201.07116699218747 L 141.552734375 200.98876953124997 L 140.94848632812503 201.04370117187497 L 140.399169921875 201.04370117187497 L 140.12451171875003 201.07116699218747 L 139.79492187500003 200.98876953124997 L 139.190673828125 201.04370117187497 L 138.641357421875 201.04370117187497 L 138.36669921875 201.07116699218747 L 138.037109375 200.98876953124997 L 137.432861328125 201.04370117187497 L 136.883544921875 201.04370117187497 L 136.60888671875 201.07116699218747 L 136.279296875 200.98876953124997 L 135.675048828125 201.04370117187497 L 135.125732421875 201.04370117187497 L 134.85107421875 201.07116699218747 L 134.521484375 200.98876953124997 L 133.917236328125 201.04370117187497 L 133.367919921875 201.04370117187497 L 133.09326171874997 201.07116699218747 L 132.763671875 200.98876953124997 L 132.159423828125 201.04370117187497 L 131.610107421875 201.04370117187497 L 131.33544921875 201.07116699218747 L 131.005859375 200.98876953124997 L 130.401611328125 201.04370117187497 L 130.072021484375 200.87890625 L 130.072021484375 62.01171875 L 131.390380859375 61.956787109375 L 131.500244140625 61.956787109375 L 132.763671875 62.01171875 L 134.027099609375 61.956787109375 L 134.136962890625 61.956787109375 L 135.400390625 62.01171875 L 136.663818359375 61.956787109375 L 136.773681640625 61.956787109375 L 138.037109375 62.01171875 L 139.300537109375 61.956787109375 L 139.410400390625 61.956787109375 L 140.67382812500003 62.01171875 L 141.937255859375 61.956787109375 L 142.047119140625 61.956787109375 L 143.310546875 62.01171875 L 144.57397460937503 61.956787109375 L 144.683837890625 61.956787109375 L 145.947265625 62.01171875 L 147.210693359375 61.956787109375 L 147.320556640625 61.956787109375 L 148.583984375 62.01171875 L 149.847412109375 61.956787109375 L 149.95727539062503 61.956787109375 L 151.220703125 62.01171875 L 152.484130859375 61.956787109375 L 152.593994140625 61.956787109375 L 153.85742187500003 62.01171875 L 155.120849609375 61.956787109375 L 155.230712890625 61.956787109375 L 156.494140625 62.01171875 L 157.75756835937503 61.956787109375 L 157.86743164062503 61.956787109375 L 159.130859375 62.01171875 L 160.394287109375 61.956787109375 L 160.50415039062497 61.956787109375 L 161.76757812500003 62.01171875 L 163.031005859375 61.956787109375 L 163.140869140625 61.956787109375 L 164.40429687499997 62.01171875 L 165.667724609375 61.956787109375 L 165.777587890625 61.956787109375 L 167.041015625 62.01171875 L 168.304443359375 61.956787109375 L 168.414306640625 61.956787109375 L 169.677734375 62.01171875 L 170.941162109375 61.956787109375 L 171.051025390625 61.956787109375 L 172.31445312500003 62.01171875 L 173.577880859375 61.956787109375 L 173.687744140625 61.956787109375 L 174.566650390625 61.956787109375" fill-opacity="0.8"/></g><g id="sketch-30c535ec"><title>Expression 3</title><path fill="#6042a6" stroke="none" paint-order="stroke fill markers" d="" fill-opacity="0.4"/><path fill="#6042a6" stroke="none" class="dcg-svg-region" paint-order="stroke fill markers" d=" M 60.913085937500014 201.0986328125 L 199.560546875 201.0986328125 L 199.615478515625 201.37329101562497 L 199.615478515625 340.2233836005627 L 60.49072772756224 201.0986328125 L 60.913085937500014 201.0986328125" fill-opacity="0.8"/></g></g><g id="labels-30c535ec"/></g></svg>